<?xml version="1.0" encoding="UTF-8" standalone="no"?><svg xmlns="http://www.w3.org/2000/svg" xmlns:xlink="http://www.w3.org/1999/xlink" contentScriptType="application/ecmascript" contentStyleType="text/css" height="813px" preserveAspectRatio="none" style="width:754px;height:813px;" version="1.1" viewBox="0 0 754 813" width="754px" zoomAndPan="magnify"><defs><filter height="300%" id="f8ng0c0" width="300%" x="-1" y="-1"><feGaussianBlur result="blurOut" stdDeviation="2.0"/><feColorMatrix in="blurOut" result="blurOut2" type="matrix" values="0 0 0 0 0 0 0 0 0 0 0 0 0 0 0 0 0 0 .4 0"/><feOffset dx="4.0" dy="4.0" in="blurOut2" result="blurOut3"/><feBlend in="SourceGraphic" in2="blurOut3" mode="normal"/></filter></defs><g><!--class server--><rect fill="#FEFECE" filter="url(#f8ng0c0)" height="99.2188" style="stroke: #A80036; stroke-width: 1.5;" width="113" x="183" y="27.5"/><ellipse cx="216.9" cy="43.5" fill="#ADD1B2" rx="11" ry="11" style="stroke: #A80036; stroke-width: 1.0;"/><path d="M211.9,44.6563 C211.9,47.1563 214.0406,48.9688 216.9625,48.9688 C218.1969,48.9688 219.3688,48.6719 220.1188,48.1563 C220.7281,47.7344 221.0563,47.3125 221.0563,46.9063 C221.0563,46.4375 220.6344,46.0313 220.1344,46.0313 C219.9,46.0313 219.6813,46.1094 219.4781,46.3125 C219.0406,46.75 219.0406,46.75 218.8688,46.8438 C218.4156,47.0781 217.775,47.2188 217.0094,47.2188 C215.0094,47.2188 213.7281,46.2031 213.7281,44.625 L213.7281,43.5781 C213.7281,41.875 214.9469,40.6719 216.65,40.6719 C217.2281,40.6719 217.8063,40.8125 218.275,41.0625 C218.7438,41.3281 218.9156,41.5156 218.9781,41.875 C219.1031,42.5469 219.3531,42.7969 219.8844,42.7969 C220.1656,42.7969 220.4469,42.6563 220.6344,42.4375 C220.7594,42.2656 220.8063,42.0938 220.8063,41.6563 L220.8063,40.2969 C220.8063,39.875 220.7906,39.7344 220.6656,39.5625 C220.4938,39.3125 220.2125,39.1563 219.8844,39.1563 C219.5719,39.1563 219.3688,39.2656 219.15,39.5313 C217.9781,39.0313 217.5406,38.9219 216.5875,38.9219 C213.9156,38.9219 211.9,40.9375 211.9,43.5625 L211.9,44.6563 Z "/><text fill="#000000" font-family="sans-serif" font-size="12" lengthAdjust="spacingAndGlyphs" textLength="39" x="235.1" y="47.6543">server</text><line style="stroke: #A80036; stroke-width: 1.5;" x1="184" x2="295" y1="59.5" y2="59.5"/><text fill="#000000" font-family="sans-serif" font-size="11" lengthAdjust="spacingAndGlyphs" textLength="78" x="189" y="73.7104">char* method</text><text fill="#000000" font-family="sans-serif" font-size="11" lengthAdjust="spacingAndGlyphs" textLength="54" x="189" y="86.5151">char* key</text><text fill="#000000" font-family="sans-serif" font-size="11" lengthAdjust="spacingAndGlyphs" textLength="101" x="189" y="99.3198">char* server_port</text><line style="stroke: #A80036; stroke-width: 1.5;" x1="184" x2="295" y1="105.9141" y2="105.9141"/><text fill="#000000" font-family="sans-serif" font-size="11" lengthAdjust="spacingAndGlyphs" textLength="35" x="189" y="120.1245">start()</text><!--class client--><rect fill="#FEFECE" filter="url(#f8ng0c0)" height="137.6328" style="stroke: #A80036; stroke-width: 1.5;" width="124" x="19.25" y="8"/><ellipse cx="60.35" cy="24" fill="#ADD1B2" rx="11" ry="11" style="stroke: #A80036; stroke-width: 1.0;"/><path d="M55.35,25.1563 C55.35,27.6563 57.4906,29.4688 60.4125,29.4688 C61.6469,29.4688 62.8188,29.1719 63.5688,28.6563 C64.1781,28.2344 64.5063,27.8125 64.5063,27.4063 C64.5063,26.9375 64.0844,26.5313 63.5844,26.5313 C63.35,26.5313 63.1313,26.6094 62.9281,26.8125 C62.4906,27.25 62.4906,27.25 62.3188,27.3438 C61.8656,27.5781 61.225,27.7188 60.4594,27.7188 C58.4594,27.7188 57.1781,26.7031 57.1781,25.125 L57.1781,24.0781 C57.1781,22.375 58.3969,21.1719 60.1,21.1719 C60.6781,21.1719 61.2563,21.3125 61.725,21.5625 C62.1938,21.8281 62.3656,22.0156 62.4281,22.375 C62.5531,23.0469 62.8031,23.2969 63.3344,23.2969 C63.6156,23.2969 63.8969,23.1563 64.0844,22.9375 C64.2094,22.7656 64.2563,22.5938 64.2563,22.1563 L64.2563,20.7969 C64.2563,20.375 64.2406,20.2344 64.1156,20.0625 C63.9438,19.8125 63.6625,19.6563 63.3344,19.6563 C63.0219,19.6563 62.8188,19.7656 62.6,20.0313 C61.4281,19.5313 60.9906,19.4219 60.0375,19.4219 C57.3656,19.4219 55.35,21.4375 55.35,24.0625 L55.35,25.1563 Z "/><text fill="#000000" font-family="sans-serif" font-size="12" lengthAdjust="spacingAndGlyphs" textLength="34" x="80.15" y="28.1543">client</text><line style="stroke: #A80036; stroke-width: 1.5;" x1="20.25" x2="142.25" y1="40" y2="40"/><text fill="#000000" font-family="sans-serif" font-size="11" lengthAdjust="spacingAndGlyphs" textLength="78" x="25.25" y="54.2104">char* method</text><text fill="#000000" font-family="sans-serif" font-size="11" lengthAdjust="spacingAndGlyphs" textLength="54" x="25.25" y="67.0151">char* key</text><text fill="#000000" font-family="sans-serif" font-size="11" lengthAdjust="spacingAndGlyphs" textLength="101" x="25.25" y="79.8198">char* server_port</text><text fill="#000000" font-family="sans-serif" font-size="11" lengthAdjust="spacingAndGlyphs" textLength="103" x="25.25" y="92.6245">char* server_host</text><line style="stroke: #A80036; stroke-width: 1.5;" x1="20.25" x2="142.25" y1="99.2188" y2="99.2188"/><text fill="#000000" font-family="sans-serif" font-size="11" lengthAdjust="spacingAndGlyphs" textLength="112" x="25.25" y="113.4292">connect_to_server()</text><text fill="#000000" font-family="sans-serif" font-size="11" lengthAdjust="spacingAndGlyphs" textLength="95" x="25.25" y="126.2339">send_message()</text><text fill="#000000" font-family="sans-serif" font-size="11" lengthAdjust="spacingAndGlyphs" textLength="108" x="25.25" y="139.0386">receive_message()</text><!--class socket--><rect fill="#FEFECE" filter="url(#f8ng0c0)" height="124.8281" style="stroke: #A80036; stroke-width: 1.5;" width="151" x="6" y="206.5"/><ellipse cx="56.25" cy="222.5" fill="#ADD1B2" rx="11" ry="11" style="stroke: #A80036; stroke-width: 1.0;"/><path d="M51.25,223.6563 C51.25,226.1563 53.3906,227.9688 56.3125,227.9688 C57.5469,227.9688 58.7188,227.6719 59.4688,227.1563 C60.0781,226.7344 60.4063,226.3125 60.4063,225.9063 C60.4063,225.4375 59.9844,225.0313 59.4844,225.0313 C59.25,225.0313 59.0313,225.1094 58.8281,225.3125 C58.3906,225.75 58.3906,225.75 58.2188,225.8438 C57.7656,226.0781 57.125,226.2188 56.3594,226.2188 C54.3594,226.2188 53.0781,225.2031 53.0781,223.625 L53.0781,222.5781 C53.0781,220.875 54.2969,219.6719 56,219.6719 C56.5781,219.6719 57.1563,219.8125 57.625,220.0625 C58.0938,220.3281 58.2656,220.5156 58.3281,220.875 C58.4531,221.5469 58.7031,221.7969 59.2344,221.7969 C59.5156,221.7969 59.7969,221.6563 59.9844,221.4375 C60.1094,221.2656 60.1563,221.0938 60.1563,220.6563 L60.1563,219.2969 C60.1563,218.875 60.1406,218.7344 60.0156,218.5625 C59.8438,218.3125 59.5625,218.1563 59.2344,218.1563 C58.9219,218.1563 58.7188,218.2656 58.5,218.5313 C57.3281,218.0313 56.8906,217.9219 55.9375,217.9219 C53.2656,217.9219 51.25,219.9375 51.25,222.5625 L51.25,223.6563 Z "/><text fill="#000000" font-family="sans-serif" font-size="12" lengthAdjust="spacingAndGlyphs" textLength="42" x="76.75" y="226.6543">socket</text><line style="stroke: #A80036; stroke-width: 1.5;" x1="7" x2="156" y1="238.5" y2="238.5"/><text fill="#000000" font-family="sans-serif" font-size="11" lengthAdjust="spacingAndGlyphs" textLength="29" x="12" y="252.7104">int fd</text><line style="stroke: #A80036; stroke-width: 1.5;" x1="7" x2="156" y1="259.3047" y2="259.3047"/><text fill="#000000" font-family="sans-serif" font-size="11" lengthAdjust="spacingAndGlyphs" textLength="139" x="12" y="273.5151">socket_bind_and_listen()</text><text fill="#000000" font-family="sans-serif" font-size="11" lengthAdjust="spacingAndGlyphs" textLength="88" x="12" y="286.3198">socket_accept()</text><text fill="#000000" font-family="sans-serif" font-size="11" lengthAdjust="spacingAndGlyphs" textLength="95" x="12" y="299.1245">socket_connect()</text><text fill="#000000" font-family="sans-serif" font-size="11" lengthAdjust="spacingAndGlyphs" textLength="79" x="12" y="311.9292">socket_send()</text><text fill="#000000" font-family="sans-serif" font-size="11" lengthAdjust="spacingAndGlyphs" textLength="92" x="12" y="324.7339">socket_receive()</text><!--class http_processor--><rect fill="#FEFECE" filter="url(#f8ng0c0)" height="73.6094" style="stroke: #A80036; stroke-width: 1.5;" width="127" x="257" y="500"/><ellipse cx="272" cy="516" fill="#ADD1B2" rx="11" ry="11" style="stroke: #A80036; stroke-width: 1.0;"/><path d="M267,517.1563 C267,519.6563 269.1406,521.4688 272.0625,521.4688 C273.2969,521.4688 274.4688,521.1719 275.2188,520.6563 C275.8281,520.2344 276.1563,519.8125 276.1563,519.4063 C276.1563,518.9375 275.7344,518.5313 275.2344,518.5313 C275,518.5313 274.7813,518.6094 274.5781,518.8125 C274.1406,519.25 274.1406,519.25 273.9688,519.3438 C273.5156,519.5781 272.875,519.7188 272.1094,519.7188 C270.1094,519.7188 268.8281,518.7031 268.8281,517.125 L268.8281,516.0781 C268.8281,514.375 270.0469,513.1719 271.75,513.1719 C272.3281,513.1719 272.9063,513.3125 273.375,513.5625 C273.8438,513.8281 274.0156,514.0156 274.0781,514.375 C274.2031,515.0469 274.4531,515.2969 274.9844,515.2969 C275.2656,515.2969 275.5469,515.1563 275.7344,514.9375 C275.8594,514.7656 275.9063,514.5938 275.9063,514.1563 L275.9063,512.7969 C275.9063,512.375 275.8906,512.2344 275.7656,512.0625 C275.5938,511.8125 275.3125,511.6563 274.9844,511.6563 C274.6719,511.6563 274.4688,511.7656 274.25,512.0313 C273.0781,511.5313 272.6406,511.4219 271.6875,511.4219 C269.0156,511.4219 267,513.4375 267,516.0625 L267,517.1563 Z "/><text fill="#000000" font-family="sans-serif" font-size="12" lengthAdjust="spacingAndGlyphs" textLength="95" x="286" y="520.1543">http_processor</text><line style="stroke: #A80036; stroke-width: 1.5;" x1="258" x2="383" y1="532" y2="532"/><line style="stroke: #A80036; stroke-width: 1.5;" x1="258" x2="383" y1="540" y2="540"/><text fill="#000000" font-family="sans-serif" font-size="11" lengthAdjust="spacingAndGlyphs" textLength="54" x="263" y="554.2104">process()</text><text fill="#000000" font-family="sans-serif" font-size="11" lengthAdjust="spacingAndGlyphs" textLength="50" x="263" y="567.0151">answer()</text><!--class http_method--><rect fill="#FEFECE" filter="url(#f8ng0c0)" height="60.8047" style="stroke: #A80036; stroke-width: 1.5;" width="112" x="352.25" y="634.5"/><ellipse cx="367.25" cy="650.5" fill="#ADD1B2" rx="11" ry="11" style="stroke: #A80036; stroke-width: 1.0;"/><path d="M362.25,651.6563 C362.25,654.1563 364.3906,655.9688 367.3125,655.9688 C368.5469,655.9688 369.7188,655.6719 370.4688,655.1563 C371.0781,654.7344 371.4063,654.3125 371.4063,653.9063 C371.4063,653.4375 370.9844,653.0313 370.4844,653.0313 C370.25,653.0313 370.0313,653.1094 369.8281,653.3125 C369.3906,653.75 369.3906,653.75 369.2188,653.8438 C368.7656,654.0781 368.125,654.2188 367.3594,654.2188 C365.3594,654.2188 364.0781,653.2031 364.0781,651.625 L364.0781,650.5781 C364.0781,648.875 365.2969,647.6719 367,647.6719 C367.5781,647.6719 368.1563,647.8125 368.625,648.0625 C369.0938,648.3281 369.2656,648.5156 369.3281,648.875 C369.4531,649.5469 369.7031,649.7969 370.2344,649.7969 C370.5156,649.7969 370.7969,649.6563 370.9844,649.4375 C371.1094,649.2656 371.1563,649.0938 371.1563,648.6563 L371.1563,647.2969 C371.1563,646.875 371.1406,646.7344 371.0156,646.5625 C370.8438,646.3125 370.5625,646.1563 370.2344,646.1563 C369.9219,646.1563 369.7188,646.2656 369.5,646.5313 C368.3281,646.0313 367.8906,645.9219 366.9375,645.9219 C364.2656,645.9219 362.25,647.9375 362.25,650.5625 L362.25,651.6563 Z "/><text fill="#000000" font-family="sans-serif" font-size="12" lengthAdjust="spacingAndGlyphs" textLength="80" x="381.25" y="654.6543">http_method</text><line style="stroke: #A80036; stroke-width: 1.5;" x1="353.25" x2="463.25" y1="666.5" y2="666.5"/><line style="stroke: #A80036; stroke-width: 1.5;" x1="353.25" x2="463.25" y1="674.5" y2="674.5"/><text fill="#000000" font-family="sans-serif" font-size="11" lengthAdjust="spacingAndGlyphs" textLength="84" x="358.25" y="688.7104">send_answer()</text><!--class http_method_selector--><rect fill="#FEFECE" filter="url(#f8ng0c0)" height="60.8047" style="stroke: #A80036; stroke-width: 1.5;" width="169" x="148" y="634.5"/><ellipse cx="163" cy="650.5" fill="#ADD1B2" rx="11" ry="11" style="stroke: #A80036; stroke-width: 1.0;"/><path d="M158,651.6563 C158,654.1563 160.1406,655.9688 163.0625,655.9688 C164.2969,655.9688 165.4688,655.6719 166.2188,655.1563 C166.8281,654.7344 167.1563,654.3125 167.1563,653.9063 C167.1563,653.4375 166.7344,653.0313 166.2344,653.0313 C166,653.0313 165.7813,653.1094 165.5781,653.3125 C165.1406,653.75 165.1406,653.75 164.9688,653.8438 C164.5156,654.0781 163.875,654.2188 163.1094,654.2188 C161.1094,654.2188 159.8281,653.2031 159.8281,651.625 L159.8281,650.5781 C159.8281,648.875 161.0469,647.6719 162.75,647.6719 C163.3281,647.6719 163.9063,647.8125 164.375,648.0625 C164.8438,648.3281 165.0156,648.5156 165.0781,648.875 C165.2031,649.5469 165.4531,649.7969 165.9844,649.7969 C166.2656,649.7969 166.5469,649.6563 166.7344,649.4375 C166.8594,649.2656 166.9063,649.0938 166.9063,648.6563 L166.9063,647.2969 C166.9063,646.875 166.8906,646.7344 166.7656,646.5625 C166.5938,646.3125 166.3125,646.1563 165.9844,646.1563 C165.6719,646.1563 165.4688,646.2656 165.25,646.5313 C164.0781,646.0313 163.6406,645.9219 162.6875,645.9219 C160.0156,645.9219 158,647.9375 158,650.5625 L158,651.6563 Z "/><text fill="#000000" font-family="sans-serif" font-size="12" lengthAdjust="spacingAndGlyphs" textLength="137" x="177" y="654.6543">http_method_selector</text><line style="stroke: #A80036; stroke-width: 1.5;" x1="149" x2="316" y1="666.5" y2="666.5"/><line style="stroke: #A80036; stroke-width: 1.5;" x1="149" x2="316" y1="674.5" y2="674.5"/><text fill="#000000" font-family="sans-serif" font-size="11" lengthAdjust="spacingAndGlyphs" textLength="91" x="154" y="688.7104">select_method()</text><!--class get--><rect fill="#FEFECE" filter="url(#f8ng0c0)" height="48" style="stroke: #A80036; stroke-width: 1.5;" width="53" x="121" y="756"/><ellipse cx="136" cy="772" fill="#ADD1B2" rx="11" ry="11" style="stroke: #A80036; stroke-width: 1.0;"/><path d="M131,773.1563 C131,775.6563 133.1406,777.4688 136.0625,777.4688 C137.2969,777.4688 138.4688,777.1719 139.2188,776.6563 C139.8281,776.2344 140.1563,775.8125 140.1563,775.4063 C140.1563,774.9375 139.7344,774.5313 139.2344,774.5313 C139,774.5313 138.7813,774.6094 138.5781,774.8125 C138.1406,775.25 138.1406,775.25 137.9688,775.3438 C137.5156,775.5781 136.875,775.7188 136.1094,775.7188 C134.1094,775.7188 132.8281,774.7031 132.8281,773.125 L132.8281,772.0781 C132.8281,770.375 134.0469,769.1719 135.75,769.1719 C136.3281,769.1719 136.9063,769.3125 137.375,769.5625 C137.8438,769.8281 138.0156,770.0156 138.0781,770.375 C138.2031,771.0469 138.4531,771.2969 138.9844,771.2969 C139.2656,771.2969 139.5469,771.1563 139.7344,770.9375 C139.8594,770.7656 139.9063,770.5938 139.9063,770.1563 L139.9063,768.7969 C139.9063,768.375 139.8906,768.2344 139.7656,768.0625 C139.5938,767.8125 139.3125,767.6563 138.9844,767.6563 C138.6719,767.6563 138.4688,767.7656 138.25,768.0313 C137.0781,767.5313 136.6406,767.4219 135.6875,767.4219 C133.0156,767.4219 131,769.4375 131,772.0625 L131,773.1563 Z "/><text fill="#000000" font-family="sans-serif" font-size="12" lengthAdjust="spacingAndGlyphs" textLength="21" x="150" y="776.1543">get</text><line style="stroke: #A80036; stroke-width: 1.5;" x1="122" x2="173" y1="788" y2="788"/><line style="stroke: #A80036; stroke-width: 1.5;" x1="122" x2="173" y1="796" y2="796"/><!--class post--><rect fill="#FEFECE" filter="url(#f8ng0c0)" height="48" style="stroke: #A80036; stroke-width: 1.5;" width="60" x="500.25" y="756"/><ellipse cx="515.25" cy="772" fill="#ADD1B2" rx="11" ry="11" style="stroke: #A80036; stroke-width: 1.0;"/><path d="M510.25,773.1563 C510.25,775.6563 512.3906,777.4688 515.3125,777.4688 C516.5469,777.4688 517.7188,777.1719 518.4688,776.6563 C519.0781,776.2344 519.4063,775.8125 519.4063,775.4063 C519.4063,774.9375 518.9844,774.5313 518.4844,774.5313 C518.25,774.5313 518.0313,774.6094 517.8281,774.8125 C517.3906,775.25 517.3906,775.25 517.2188,775.3438 C516.7656,775.5781 516.125,775.7188 515.3594,775.7188 C513.3594,775.7188 512.0781,774.7031 512.0781,773.125 L512.0781,772.0781 C512.0781,770.375 513.2969,769.1719 515,769.1719 C515.5781,769.1719 516.1563,769.3125 516.625,769.5625 C517.0938,769.8281 517.2656,770.0156 517.3281,770.375 C517.4531,771.0469 517.7031,771.2969 518.2344,771.2969 C518.5156,771.2969 518.7969,771.1563 518.9844,770.9375 C519.1094,770.7656 519.1563,770.5938 519.1563,770.1563 L519.1563,768.7969 C519.1563,768.375 519.1406,768.2344 519.0156,768.0625 C518.8438,767.8125 518.5625,767.6563 518.2344,767.6563 C517.9219,767.6563 517.7188,767.7656 517.5,768.0313 C516.3281,767.5313 515.8906,767.4219 514.9375,767.4219 C512.2656,767.4219 510.25,769.4375 510.25,772.0625 L510.25,773.1563 Z "/><text fill="#000000" font-family="sans-serif" font-size="12" lengthAdjust="spacingAndGlyphs" textLength="28" x="529.25" y="776.1543">post</text><line style="stroke: #A80036; stroke-width: 1.5;" x1="501.25" x2="559.25" y1="788" y2="788"/><line style="stroke: #A80036; stroke-width: 1.5;" x1="501.25" x2="559.25" y1="796" y2="796"/><!--class get_recurse--><rect fill="#FEFECE" filter="url(#f8ng0c0)" height="48" style="stroke: #A80036; stroke-width: 1.5;" width="107" x="209" y="756"/><ellipse cx="224" cy="772" fill="#ADD1B2" rx="11" ry="11" style="stroke: #A80036; stroke-width: 1.0;"/><path d="M219,773.1563 C219,775.6563 221.1406,777.4688 224.0625,777.4688 C225.2969,777.4688 226.4688,777.1719 227.2188,776.6563 C227.8281,776.2344 228.1563,775.8125 228.1563,775.4063 C228.1563,774.9375 227.7344,774.5313 227.2344,774.5313 C227,774.5313 226.7813,774.6094 226.5781,774.8125 C226.1406,775.25 226.1406,775.25 225.9688,775.3438 C225.5156,775.5781 224.875,775.7188 224.1094,775.7188 C222.1094,775.7188 220.8281,774.7031 220.8281,773.125 L220.8281,772.0781 C220.8281,770.375 222.0469,769.1719 223.75,769.1719 C224.3281,769.1719 224.9063,769.3125 225.375,769.5625 C225.8438,769.8281 226.0156,770.0156 226.0781,770.375 C226.2031,771.0469 226.4531,771.2969 226.9844,771.2969 C227.2656,771.2969 227.5469,771.1563 227.7344,770.9375 C227.8594,770.7656 227.9063,770.5938 227.9063,770.1563 L227.9063,768.7969 C227.9063,768.375 227.8906,768.2344 227.7656,768.0625 C227.5938,767.8125 227.3125,767.6563 226.9844,767.6563 C226.6719,767.6563 226.4688,767.7656 226.25,768.0313 C225.0781,767.5313 224.6406,767.4219 223.6875,767.4219 C221.0156,767.4219 219,769.4375 219,772.0625 L219,773.1563 Z "/><text fill="#000000" font-family="sans-serif" font-size="12" lengthAdjust="spacingAndGlyphs" textLength="75" x="238" y="776.1543">get_recurse</text><line style="stroke: #A80036; stroke-width: 1.5;" x1="210" x2="315" y1="788" y2="788"/><line style="stroke: #A80036; stroke-width: 1.5;" x1="210" x2="315" y1="796" y2="796"/><!--class post_recurse--><rect fill="#FEFECE" filter="url(#f8ng0c0)" height="48" style="stroke: #A80036; stroke-width: 1.5;" width="114" x="351.25" y="756"/><ellipse cx="366.25" cy="772" fill="#ADD1B2" rx="11" ry="11" style="stroke: #A80036; stroke-width: 1.0;"/><path d="M361.25,773.1563 C361.25,775.6563 363.3906,777.4688 366.3125,777.4688 C367.5469,777.4688 368.7188,777.1719 369.4688,776.6563 C370.0781,776.2344 370.4063,775.8125 370.4063,775.4063 C370.4063,774.9375 369.9844,774.5313 369.4844,774.5313 C369.25,774.5313 369.0313,774.6094 368.8281,774.8125 C368.3906,775.25 368.3906,775.25 368.2188,775.3438 C367.7656,775.5781 367.125,775.7188 366.3594,775.7188 C364.3594,775.7188 363.0781,774.7031 363.0781,773.125 L363.0781,772.0781 C363.0781,770.375 364.2969,769.1719 366,769.1719 C366.5781,769.1719 367.1563,769.3125 367.625,769.5625 C368.0938,769.8281 368.2656,770.0156 368.3281,770.375 C368.4531,771.0469 368.7031,771.2969 369.2344,771.2969 C369.5156,771.2969 369.7969,771.1563 369.9844,770.9375 C370.1094,770.7656 370.1563,770.5938 370.1563,770.1563 L370.1563,768.7969 C370.1563,768.375 370.1406,768.2344 370.0156,768.0625 C369.8438,767.8125 369.5625,767.6563 369.2344,767.6563 C368.9219,767.6563 368.7188,767.7656 368.5,768.0313 C367.3281,767.5313 366.8906,767.4219 365.9375,767.4219 C363.2656,767.4219 361.25,769.4375 361.25,772.0625 L361.25,773.1563 Z "/><text fill="#000000" font-family="sans-serif" font-size="12" lengthAdjust="spacingAndGlyphs" textLength="82" x="380.25" y="776.1543">post_recurse</text><line style="stroke: #A80036; stroke-width: 1.5;" x1="352.25" x2="464.25" y1="788" y2="788"/><line style="stroke: #A80036; stroke-width: 1.5;" x1="352.25" x2="464.25" y1="796" y2="796"/><!--class undefined_method--><rect fill="#FEFECE" filter="url(#f8ng0c0)" height="48" style="stroke: #A80036; stroke-width: 1.5;" width="149" x="596" y="756"/><ellipse cx="611" cy="772" fill="#ADD1B2" rx="11" ry="11" style="stroke: #A80036; stroke-width: 1.0;"/><path d="M606,773.1563 C606,775.6563 608.1406,777.4688 611.0625,777.4688 C612.2969,777.4688 613.4688,777.1719 614.2188,776.6563 C614.8281,776.2344 615.1563,775.8125 615.1563,775.4063 C615.1563,774.9375 614.7344,774.5313 614.2344,774.5313 C614,774.5313 613.7813,774.6094 613.5781,774.8125 C613.1406,775.25 613.1406,775.25 612.9688,775.3438 C612.5156,775.5781 611.875,775.7188 611.1094,775.7188 C609.1094,775.7188 607.8281,774.7031 607.8281,773.125 L607.8281,772.0781 C607.8281,770.375 609.0469,769.1719 610.75,769.1719 C611.3281,769.1719 611.9063,769.3125 612.375,769.5625 C612.8438,769.8281 613.0156,770.0156 613.0781,770.375 C613.2031,771.0469 613.4531,771.2969 613.9844,771.2969 C614.2656,771.2969 614.5469,771.1563 614.7344,770.9375 C614.8594,770.7656 614.9063,770.5938 614.9063,770.1563 L614.9063,768.7969 C614.9063,768.375 614.8906,768.2344 614.7656,768.0625 C614.5938,767.8125 614.3125,767.6563 613.9844,767.6563 C613.6719,767.6563 613.4688,767.7656 613.25,768.0313 C612.0781,767.5313 611.6406,767.4219 610.6875,767.4219 C608.0156,767.4219 606,769.4375 606,772.0625 L606,773.1563 Z "/><text fill="#000000" font-family="sans-serif" font-size="12" lengthAdjust="spacingAndGlyphs" textLength="117" x="625" y="776.1543">undefined_method</text><line style="stroke: #A80036; stroke-width: 1.5;" x1="597" x2="744" y1="788" y2="788"/><line style="stroke: #A80036; stroke-width: 1.5;" x1="597" x2="744" y1="796" y2="796"/><!--class thread--><rect fill="#FEFECE" filter="url(#f8ng0c0)" height="48" style="stroke: #A80036; stroke-width: 1.5;" width="74" x="339.25" y="53"/><ellipse cx="354.25" cy="69" fill="#ADD1B2" rx="11" ry="11" style="stroke: #A80036; stroke-width: 1.0;"/><path d="M349.25,70.1563 C349.25,72.6563 351.3906,74.4688 354.3125,74.4688 C355.5469,74.4688 356.7188,74.1719 357.4688,73.6563 C358.0781,73.2344 358.4063,72.8125 358.4063,72.4063 C358.4063,71.9375 357.9844,71.5313 357.4844,71.5313 C357.25,71.5313 357.0313,71.6094 356.8281,71.8125 C356.3906,72.25 356.3906,72.25 356.2188,72.3438 C355.7656,72.5781 355.125,72.7188 354.3594,72.7188 C352.3594,72.7188 351.0781,71.7031 351.0781,70.125 L351.0781,69.0781 C351.0781,67.375 352.2969,66.1719 354,66.1719 C354.5781,66.1719 355.1563,66.3125 355.625,66.5625 C356.0938,66.8281 356.2656,67.0156 356.3281,67.375 C356.4531,68.0469 356.7031,68.2969 357.2344,68.2969 C357.5156,68.2969 357.7969,68.1563 357.9844,67.9375 C358.1094,67.7656 358.1563,67.5938 358.1563,67.1563 L358.1563,65.7969 C358.1563,65.375 358.1406,65.2344 358.0156,65.0625 C357.8438,64.8125 357.5625,64.6563 357.2344,64.6563 C356.9219,64.6563 356.7188,64.7656 356.5,65.0313 C355.3281,64.5313 354.8906,64.4219 353.9375,64.4219 C351.2656,64.4219 349.25,66.4375 349.25,69.0625 L349.25,70.1563 Z "/><text fill="#000000" font-family="sans-serif" font-size="12" lengthAdjust="spacingAndGlyphs" textLength="42" x="368.25" y="73.1543">thread</text><line style="stroke: #A80036; stroke-width: 1.5;" x1="340.25" x2="412.25" y1="85" y2="85"/><line style="stroke: #A80036; stroke-width: 1.5;" x1="340.25" x2="412.25" y1="93" y2="93"/><!--class thread_cliente--><rect fill="#FEFECE" filter="url(#f8ng0c0)" height="48" style="stroke: #A80036; stroke-width: 1.5;" width="122" x="259.25" y="392"/><ellipse cx="274.25" cy="408" fill="#ADD1B2" rx="11" ry="11" style="stroke: #A80036; stroke-width: 1.0;"/><path d="M269.25,409.1563 C269.25,411.6563 271.3906,413.4688 274.3125,413.4688 C275.5469,413.4688 276.7188,413.1719 277.4688,412.6563 C278.0781,412.2344 278.4063,411.8125 278.4063,411.4063 C278.4063,410.9375 277.9844,410.5313 277.4844,410.5313 C277.25,410.5313 277.0313,410.6094 276.8281,410.8125 C276.3906,411.25 276.3906,411.25 276.2188,411.3438 C275.7656,411.5781 275.125,411.7188 274.3594,411.7188 C272.3594,411.7188 271.0781,410.7031 271.0781,409.125 L271.0781,408.0781 C271.0781,406.375 272.2969,405.1719 274,405.1719 C274.5781,405.1719 275.1563,405.3125 275.625,405.5625 C276.0938,405.8281 276.2656,406.0156 276.3281,406.375 C276.4531,407.0469 276.7031,407.2969 277.2344,407.2969 C277.5156,407.2969 277.7969,407.1563 277.9844,406.9375 C278.1094,406.7656 278.1563,406.5938 278.1563,406.1563 L278.1563,404.7969 C278.1563,404.375 278.1406,404.2344 278.0156,404.0625 C277.8438,403.8125 277.5625,403.6563 277.2344,403.6563 C276.9219,403.6563 276.7188,403.7656 276.5,404.0313 C275.3281,403.5313 274.8906,403.4219 273.9375,403.4219 C271.2656,403.4219 269.25,405.4375 269.25,408.0625 L269.25,409.1563 Z "/><text fill="#000000" font-family="sans-serif" font-size="12" lengthAdjust="spacingAndGlyphs" textLength="90" x="288.25" y="412.1543">thread_cliente</text><line style="stroke: #A80036; stroke-width: 1.5;" x1="260.25" x2="380.25" y1="424" y2="424"/><line style="stroke: #A80036; stroke-width: 1.5;" x1="260.25" x2="380.25" y1="432" y2="432"/><!--class thread_acceptor--><rect fill="#FEFECE" filter="url(#f8ng0c0)" height="48" style="stroke: #A80036; stroke-width: 1.5;" width="136" x="192.25" y="245"/><ellipse cx="207.25" cy="261" fill="#ADD1B2" rx="11" ry="11" style="stroke: #A80036; stroke-width: 1.0;"/><path d="M202.25,262.1563 C202.25,264.6563 204.3906,266.4688 207.3125,266.4688 C208.5469,266.4688 209.7188,266.1719 210.4688,265.6563 C211.0781,265.2344 211.4063,264.8125 211.4063,264.4063 C211.4063,263.9375 210.9844,263.5313 210.4844,263.5313 C210.25,263.5313 210.0313,263.6094 209.8281,263.8125 C209.3906,264.25 209.3906,264.25 209.2188,264.3438 C208.7656,264.5781 208.125,264.7188 207.3594,264.7188 C205.3594,264.7188 204.0781,263.7031 204.0781,262.125 L204.0781,261.0781 C204.0781,259.375 205.2969,258.1719 207,258.1719 C207.5781,258.1719 208.1563,258.3125 208.625,258.5625 C209.0938,258.8281 209.2656,259.0156 209.3281,259.375 C209.4531,260.0469 209.7031,260.2969 210.2344,260.2969 C210.5156,260.2969 210.7969,260.1563 210.9844,259.9375 C211.1094,259.7656 211.1563,259.5938 211.1563,259.1563 L211.1563,257.7969 C211.1563,257.375 211.1406,257.2344 211.0156,257.0625 C210.8438,256.8125 210.5625,256.6563 210.2344,256.6563 C209.9219,256.6563 209.7188,256.7656 209.5,257.0313 C208.3281,256.5313 207.8906,256.4219 206.9375,256.4219 C204.2656,256.4219 202.25,258.4375 202.25,261.0625 L202.25,262.1563 Z "/><text fill="#000000" font-family="sans-serif" font-size="12" lengthAdjust="spacingAndGlyphs" textLength="104" x="221.25" y="265.1543">thread_acceptor</text><line style="stroke: #A80036; stroke-width: 1.5;" x1="193.25" x2="327.25" y1="277" y2="277"/><line style="stroke: #A80036; stroke-width: 1.5;" x1="193.25" x2="327.25" y1="285" y2="285"/><path d="M190.084,137.123 C171.808,159.102 151.033,184.083 132.569,206.288 " fill="none" style="stroke: #A80036; stroke-width: 1.0;"/><polygon fill="#A80036" points="198.561,126.93,191.6491,128.9856,190.8881,136.1564,197.8,134.1008,198.561,126.93" style="stroke: #A80036; stroke-width: 1.0;"/><path d="M81.25,159.187 C81.25,175.012 81.25,191.358 81.25,206.42 " fill="none" style="stroke: #A80036; stroke-width: 1.0;"/><polygon fill="#A80036" points="81.25,146.058,77.25,152.058,81.25,158.058,85.25,152.058,81.25,146.058" style="stroke: #A80036; stroke-width: 1.0;"/><path d="M246.132,140.269 C250.094,176.109 254.837,219.029 257.694,244.873 " fill="none" style="stroke: #A80036; stroke-width: 1.0;"/><polygon fill="#A80036" points="244.658,126.93,241.3416,133.3332,245.9767,138.8573,249.2931,132.4541,244.658,126.93" style="stroke: #A80036; stroke-width: 1.0;"/><path d="M351.496,118.545 C328.015,157.005 293.559,213.443 274.409,244.809 " fill="none" style="stroke: #A80036; stroke-width: 1.0;"/><polygon fill="none" points="345.63,114.72,362.026,101.298,357.579,122.015,345.63,114.72" style="stroke: #A80036; stroke-width: 1.0;"/><path d="M373.226,121.405 C369.159,172.272 360.6,258.908 345.25,332 C340.951,352.472 333.95,375.182 328.449,391.665 " fill="none" style="stroke: #A80036; stroke-width: 1.0;"/><polygon fill="none" points="366.255,120.747,374.743,101.332,380.215,121.803,366.255,120.747" style="stroke: #A80036; stroke-width: 1.0;"/><path d="M274.999,305.643 C286.109,332.492 301.021,368.529 310.634,391.761 " fill="none" style="stroke: #A80036; stroke-width: 1.0;"/><polygon fill="#A80036" points="269.89,293.297,268.4883,300.3706,274.4787,304.385,275.8803,297.3114,269.89,293.297" style="stroke: #A80036; stroke-width: 1.0;"/><path d="M320.25,453.48 C320.25,468.161 320.25,485.053 320.25,499.714 " fill="none" style="stroke: #A80036; stroke-width: 1.0;"/><polygon fill="#A80036" points="320.25,440.227,316.25,446.227,320.25,452.227,324.25,446.227,320.25,440.227" style="stroke: #A80036; stroke-width: 1.0;"/><path d="M287.292,585.19 C275.803,601.64 263.24,619.629 253.02,634.261 " fill="none" style="stroke: #A80036; stroke-width: 1.0;"/><polygon fill="#A80036" points="295.033,574.107,288.3179,576.7352,288.1612,583.9446,294.8763,581.3164,295.033,574.107" style="stroke: #A80036; stroke-width: 1.0;"/><path d="M353.208,585.19 C364.697,601.64 377.26,619.629 387.48,634.261 " fill="none" style="stroke: #A80036; stroke-width: 1.0;"/><polygon fill="#A80036" points="345.467,574.107,345.6237,581.3164,352.3388,583.9446,352.1821,576.7352,345.467,574.107" style="stroke: #A80036; stroke-width: 1.0;"/><path d="M333.29,696.266 C281.547,717.3147 217.516,743.7176 191.25,756 C185.472,758.7019 179.358,761.7636 173.585,764.7513 " fill="none" style="stroke: #A80036; stroke-width: 1.0;"/><polygon fill="none" points="330.895,689.684,352.059,688.646,336.161,702.655,330.895,689.684" style="stroke: #A80036; stroke-width: 1.0;"/><path d="M354.053,707.9469 C333.081,724.1787 309.887,742.1303 292.059,755.9284 " fill="none" style="stroke: #A80036; stroke-width: 1.0;"/><polygon fill="none" points="349.79,702.395,369.89,695.689,358.358,713.4664,349.79,702.395" style="stroke: #A80036; stroke-width: 1.0;"/><path d="M408.25,715.974 C408.25,729.9054 408.25,744.3733 408.25,755.9284 " fill="none" style="stroke: #A80036; stroke-width: 1.0;"/><polygon fill="none" points="401.25,715.6895,408.25,695.689,415.25,715.6894,401.25,715.6895" style="stroke: #A80036; stroke-width: 1.0;"/><path d="M455.096,709.3905 C472.204,725.2363 490.884,742.5381 505.341,755.9284 " fill="none" style="stroke: #A80036; stroke-width: 1.0;"/><polygon fill="none" points="450.22,714.4156,440.304,695.689,459.734,704.1445,450.22,714.4156" style="stroke: #A80036; stroke-width: 1.0;"/><path d="M482.997,698.238 C525.708,716.6595 578.269,739.3288 616.821,755.9561 " fill="none" style="stroke: #A80036; stroke-width: 1.0;"/><polygon fill="none" points="480.048,704.5897,464.456,690.241,485.593,691.734,480.048,704.5897" style="stroke: #A80036; stroke-width: 1.0;"/></g>
<g transform="translate(0.000000,17.000000) scale(0.100000,-0.100000)"
fill="#000000" stroke="none">
<path d="M21 157 c-29 -35 -16 -97 20 -97 15 0 19 -5 15 -16 -3 -9 -6 -20 -6
-25 0 -5 -4 -9 -10 -9 -14 0 -12 27 3 33 6 3 2 6 -10 6 -30 1 -31 -35 -3 -44
28 -9 47 9 55 51 3 20 9 42 12 50 3 8 -1 14 -11 14 -9 0 -16 -8 -16 -19 0 -26
-15 -34 -30 -16 -13 16 -6 48 16 70 14 13 13 15 -4 15 -11 0 -25 -6 -31 -13z"/>
<path d="M80 150 c0 -13 5 -20 13 -17 6 2 12 10 12 17 0 7 -6 15 -12 18 -8 2
-13 -5 -13 -18z"/>
<path d="M347 164 c-13 -13 -7 -24 14 -24 11 0 19 5 17 12 -5 14 -22 21 -31
12z"/>
<path d="M103 85 c-9 -40 -8 -45 8 -45 13 0 19 9 21 33 2 24 7 31 21 29 10 -2
17 3 17 13 0 10 -9 15 -28 15 -26 0 -30 -5 -39 -45z"/>
<path d="M175 101 c-24 -48 -13 -59 64 -60 63 -1 69 1 79 25 15 31 15 64 1 64
-6 0 -8 -8 -5 -18 4 -10 -1 -27 -10 -38 -14 -18 -15 -17 -9 19 5 29 3 37 -9
37 -9 0 -18 -13 -22 -35 -3 -19 -10 -35 -14 -35 -4 0 -4 16 0 35 8 35 8 35
-26 35 -27 0 -36 -6 -49 -29z m47 -6 c-5 -28 -22 -44 -22 -21 0 21 11 46 20
46 4 0 5 -11 2 -25z"/>
<path d="M340 116 c0 -7 -3 -28 -6 -45 -6 -26 -3 -31 13 -31 10 0 25 6 32 12
11 10 13 10 7 1 -5 -9 3 -13 28 -13 25 0 36 4 36 15 0 8 -4 15 -10 15 -5 0
-10 -4 -10 -10 0 -5 -5 -10 -11 -10 -6 0 -2 12 9 28 36 51 36 52 -2 52 -25 0
-36 -4 -36 -15 0 -8 5 -15 10 -15 6 0 10 5 10 12 0 6 3 9 6 6 9 -10 -19 -46
-39 -52 -17 -4 -18 -1 -13 30 6 27 4 34 -9 34 -8 0 -15 -6 -15 -14z"/>
<path d="M472 118 c-7 -7 -12 -27 -12 -46 0 -30 2 -33 27 -30 17 2 32 12 39
27 7 13 18 28 26 33 10 8 9 8 -4 4 -12 -3 -18 0 -18 9 0 18 -41 20 -58 3z m29
-51 c-13 -13 -15 11 -4 40 7 16 8 15 11 -6 2 -13 -1 -28 -7 -34z"/>
</g>
</svg>